<?xml version="1.0" encoding="utf-8"?>
<svg width="321.4pt" height="472.76" viewBox="0 0 321.4 354.57" class="displayed_equation" xmlns="http://www.w3.org/2000/svg">
  <defs>
    <clipPath id="svg246108560531tikz_00001g">
      <path d="M 242 57 L 305.660156 57 L 305.660156 165 L 242 165 Z M 242 57"/>
    </clipPath>
    <clipPath id="svg246108560531tikz_00001a">
      <path d="M 183 141 L 276 141 L 276 178.464844 L 183 178.464844 Z M 183 141"/>
    </clipPath>
    <clipPath id="svg246108560531tikz_00001c">
      <path d="M 15.734375 57 L 79 57 L 79 165 L 15.734375 165 Z M 15.734375 57"/>
    </clipPath>
    <clipPath id="svg246108560531tikz_00001d">
      <path d="M 15.734375 58 L 73 58 L 73 165 L 15.734375 165 Z M 15.734375 58"/>
    </clipPath>
    <clipPath id="svg246108560531tikz_00001e">
      <path d="M 15.734375 15.734375 L 89 15.734375 L 89 59 L 15.734375 59 Z M 15.734375 15.734375"/>
    </clipPath>
    <clipPath id="svg246108560531tikz_00001f">
      <path d="M 242 58 L 305.660156 58 L 305.660156 164 L 242 164 Z M 242 58"/>
    </clipPath>
    <clipPath id="svg246108560531tikz_00001b">
      <path d="M 45 141 L 139 141 L 139 178.464844 L 45 178.464844 Z M 45 141"/>
    </clipPath>
    <clipPath id="svg246108560531tikz_00001h">
      <path d="M 249 58 L 305.660156 58 L 305.660156 164 L 249 164 Z M 249 58"/>
    </clipPath>
    <clipPath id="svg246108560531tikz_00001i">
      <path d="M 248 58 L 305.660156 58 L 305.660156 165 L 248 165 Z M 248 58"/>
    </clipPath>
    <clipPath id="svg246108560531tikz_00001j">
      <path d="M 233 16 L 305.660156 16 L 305.660156 59 L 233 59 Z M 233 16"/>
    </clipPath>
    <clipPath id="svg246108560531tikz_00001k">
      <path d="M 233 15.734375 L 305.660156 15.734375 L 305.660156 59 L 233 59 Z M 233 15.734375"/>
    </clipPath>
    <clipPath id="svg246108560531tikz_00001l">
      <path d="M 160 41 L 162 41 L 162 178.464844 L 160 178.464844 Z M 160 41"/>
    </clipPath>
  </defs>
  <g clip-path="url(#svg246108560531tikz_00001a)">
    <path d="M 1839.296875 2121.129687 L 2071.210938 2121.129687 L 2071.210938 1769.645312 L 2751.367188 1769.645312" transform="matrix(.1 0 0 -.1 0 354.57)" fill="none" stroke-width="14.229" stroke-linecap="round" stroke-linejoin="round" stroke="#55a4e0" stroke-miterlimit="10"/>
  </g>
  <g clip-path="url(#svg246108560531tikz_00001b)">
    <path d="M 1374.6875 2121.129687 L 1143.476563 2121.129687 L 1143.476563 1769.645312 L 463.320313 1769.645312" transform="matrix(.1 0 0 -.1 0 354.57)" fill="none" stroke-width="14.229" stroke-linecap="round" stroke-linejoin="round" stroke="#55a4e0" stroke-miterlimit="10"/>
  </g>
  <path d="M 1745.351563 2077.028125 L 1924.648438 2077.028125 L 1924.648438 2103.35625 L 1745.351563 2103.35625 Z M 1745.351563 2077.028125" transform="matrix(.1 0 0 -.1 0 354.57)" fill="#55a4e0" stroke-width="7.115" stroke-linecap="round" stroke-linejoin="round" stroke="#000" stroke-miterlimit="10"/>
  <path d="M 1913.28125 2138.942187 L 1733.984375 2138.942187 L 1745.351563 2103.35625 L 1924.648438 2103.35625 Z M 1913.28125 2138.942187" transform="matrix(.1 0 0 -.1 0 354.57)" fill="#57b0dd" stroke-width="7.115" stroke-linecap="round" stroke-linejoin="round" stroke="#000" stroke-miterlimit="10"/>
  <path d="M 1289.335938 2103.35625 L 1467.1875 2103.35625 L 1467.890625 2077.028125 L 1289.335938 2077.028125 Z M 1289.335938 2103.35625" transform="matrix(.1 0 0 -.1 0 354.57)" fill="#55a4e0" stroke-width="7.115" stroke-linecap="round" stroke-linejoin="round" stroke="#000" stroke-miterlimit="10"/>
  <path d="M 1301.40625 2138.942187 L 1480 2138.942187 L 1467.890625 2103.35625 L 1289.335938 2103.35625 Z M 1301.40625 2138.942187" transform="matrix(.1 0 0 -.1 0 354.57)" fill="#57b0dd" stroke-width="7.115" stroke-linecap="round" stroke-linejoin="round" stroke="#000" stroke-miterlimit="10"/>
  <path d="M 63.691406 91.230469 C 63.691406 77.429688 67.03125 65.261719 72.15625 58.289063 L 23.066406 58.429688 L 22.496094 129.648438 L 16.089844 163.730469 L 72.15625 163.730469 L 78.558594 129.648438 C 70.089844 126.164063 63.691406 110.300781 63.691406 91.230469 Z M 63.691406 91.230469" fill="#9ba2a4"/>
  <g clip-path="url(#svg246108560531tikz_00001c)">
    <path d="M 636.914063 2633.395312 C 636.914063 2771.403125 670.3125 2893.082812 721.5625 2962.809375 L 230.664063 2961.403125 L 224.960938 2249.215625 L 160.898438 1908.395312 L 721.5625 1908.395312 L 785.585938 2249.215625 C 700.898438 2284.059375 636.914063 2442.692187 636.914063 2633.395312 Z M 636.914063 2633.395312" transform="matrix(.1 0 0 -.1 0 354.57)" fill="none" stroke-width="7.115" stroke-linecap="round" stroke-linejoin="round" stroke="#000" stroke-miterlimit="10"/>
  </g>
  <path d="M 57.285156 111.082031 C 57.285156 84.828125 63.761719 62.984375 72.296875 58.359375 L 16.089844 58.359375 L 16.089844 163.65625 L 72.15625 163.65625 C 63.691406 158.964844 57.285156 137.191406 57.285156 111.082031 Z M 57.285156 111.082031" fill="#73797a"/>
  <g clip-path="url(#svg246108560531tikz_00001d)">
    <path d="M 572.851563 2434.879687 C 572.851563 2697.41875 637.617188 2915.85625 722.96875 2962.10625 L 160.898438 2962.10625 L 160.898438 1909.1375 L 721.5625 1909.1375 C 636.914063 1956.051562 572.851563 2173.785937 572.851563 2434.879687 Z M 572.851563 2434.879687" transform="matrix(.1 0 0 -.1 0 354.57)" fill="none" stroke-width="7.115" stroke-linecap="round" stroke-linejoin="round" stroke="#000" stroke-miterlimit="10"/>
  </g>
  <path d="M 87.664063 16.101563 L 57.074219 16.101563 L 16.089844 58.429688 L 72.296875 58.429688 Z M 87.664063 16.101563" fill="#b8bfc1"/>
  <g clip-path="url(#svg246108560531tikz_00001e)">
    <path d="M 876.640625 3384.684375 L 570.742188 3384.684375 L 160.898438 2961.403125 L 722.96875 2961.403125 Z M 876.640625 3384.684375" transform="matrix(.1 0 0 -.1 0 354.57)" fill="none" stroke-width="7.115" stroke-linecap="round" stroke-linejoin="round" stroke="#000" stroke-miterlimit="10"/>
  </g>
  <g clip-path="url(#svg246108560531tikz_00001f)">
    <path d="M 257.707031 91.230469 C 257.707031 77.429688 254.363281 65.261719 249.242188 58.289063 L 298.332031 58.429688 L 298.828125 129.648438 L 305.234375 163.730469 L 249.171875 163.730469 L 242.765625 129.648438 C 251.304688 126.164063 257.707031 110.300781 257.707031 91.230469 Z M 257.707031 91.230469" fill="#9ba2a4"/>
  </g>
  <g clip-path="url(#svg246108560531tikz_00001g)">
    <path d="M 2577.070313 2633.395312 C 2577.070313 2771.403125 2543.632813 2893.082812 2492.421875 2962.809375 L 2983.320313 2961.403125 L 2988.28125 2249.215625 L 3052.34375 1908.395312 L 2491.71875 1908.395312 L 2427.65625 2249.215625 C 2513.046875 2284.059375 2577.070313 2442.692187 2577.070313 2633.395312 Z M 2577.070313 2633.395312" transform="matrix(.1 0 0 -.1 0 354.57)" fill="none" stroke-width="7.115" stroke-linecap="round" stroke-linejoin="round" stroke="#000" stroke-miterlimit="10"/>
  </g>
  <g clip-path="url(#svg246108560531tikz_00001h)">
    <path d="M 264.109375 111.082031 C 264.109375 84.828125 257.636719 62.984375 249.097656 58.359375 L 305.304688 58.359375 L 305.304688 163.65625 L 249.242188 163.65625 C 257.707031 158.964844 264.109375 137.191406 264.109375 111.082031 Z M 264.109375 111.082031" fill="#73797a"/>
  </g>
  <g clip-path="url(#svg246108560531tikz_00001i)">
    <path d="M 2641.09375 2434.879687 C 2641.09375 2697.41875 2576.367188 2915.85625 2490.976563 2962.10625 L 3053.046875 2962.10625 L 3053.046875 1909.1375 L 2492.421875 1909.1375 C 2577.070313 1956.051562 2641.09375 2173.785937 2641.09375 2434.879687 Z M 2641.09375 2434.879687" transform="matrix(.1 0 0 -.1 0 354.57)" fill="none" stroke-width="7.115" stroke-linecap="round" stroke-linejoin="round" stroke="#000" stroke-miterlimit="10"/>
  </g>
  <g clip-path="url(#svg246108560531tikz_00001j)">
    <path d="M 233.730469 16.101563 L 264.394531 16.101563 L 305.304688 58.429688 L 249.097656 58.429688 Z M 233.730469 16.101563" fill="#b8bfc1"/>
  </g>
  <g clip-path="url(#svg246108560531tikz_00001k)">
    <path d="M 2337.304688 3384.684375 L 2643.945313 3384.684375 L 3053.046875 2961.403125 L 2490.976563 2961.403125 Z M 2337.304688 3384.684375" transform="matrix(.1 0 0 -.1 0 354.57)" fill="none" stroke-width="7.115" stroke-linecap="round" stroke-linejoin="round" stroke="#000" stroke-miterlimit="10"/>
  </g>
  <path d="M 1665.703125 2210.075 L 1665.703125 2336.715625 L 2375.742188 2336.715625 L 2006.484375 2991.989062 L 1207.5 2991.989062 L 838.242188 2336.715625 L 1548.28125 2336.715625 L 1548.28125 2210.075" transform="matrix(.1 0 0 -.1 0 354.57)" fill="none" stroke-width="14.229" stroke-linecap="round" stroke-linejoin="round" stroke="#e132a2" stroke-miterlimit="10"/>
  <g clip-path="url(#svg246108560531tikz_00001l)">
    <path d="M 1607.34375 1764.684375 L 1607.34375 3127.848437" transform="matrix(.1 0 0 -.1 0 354.57)" fill="none" stroke-width="7.115" stroke-linecap="round" stroke-linejoin="round" stroke="#73797a" stroke-dasharray="43.8402,43.8402"/>
  </g>
  <path d="M1630.117188 2158.121875L1630.117188 2022.965625 1746.09375 2050.7 1722.617188 2158.825 1722.617188 2159.567187C1712.617188 2207.926562 1672.070313 2245.621875 1622.265625 2252.028125zM1583.867188 2158.121875L1592.421875 2252.028125C1537.617188 2245.621875 1494.21875 2201.520312 1488.515625 2146.754687L1467.890625 2050.7 1583.867188 2022.965625zM1583.867188 2158.121875" transform="matrix(.1 0 0 -.1 0 354.57)" fill="#dd9414" stroke-width="7.115" stroke-linecap="round" stroke-linejoin="round" stroke="#000" stroke-miterlimit="10"/>
  <path d="M1583.867188 2158.121875C1516.289063 2147.457812 1464.335938 2088.395312 1464.335938 2017.2625 1464.335938 1946.129687 1516.289063 1887.770312 1583.867188 1876.403125zM1630.117188 2158.121875L1630.117188 1876.403125C1697.695313 1887.067187 1749.648438 1946.129687 1749.648438 2017.2625 1749.648438 2088.395312 1697.695313 2147.457812 1630.117188 2158.121875zM1630.117188 2158.121875" transform="matrix(.1 0 0 -.1 0 354.57)" fill="#fbc04f" stroke-width="7.115" stroke-linecap="round" stroke-linejoin="round" stroke="#000" stroke-miterlimit="10"/>
  <path d="M1618.710938 2001.598437L1621.5625 2252.770312 1630.117188 2158.121875 1630.117188 1876.403125zM1595.234375 2001.598437L1592.421875 2252.770312 1583.867188 2158.121875 1583.867188 1876.403125zM1595.234375 2001.598437" transform="matrix(.1 0 0 -.1 0 354.57)" fill="#68430e" stroke-width="7.115" stroke-linecap="round" stroke-linejoin="round" stroke="#000" stroke-miterlimit="10"/>
  <path d="M56.539063 191.460938L56.539063 190.699219 53.617188 190.699219 53.617188 187.746094 52.8125 187.746094 52.8125 190.699219 49.890625 190.699219 49.890625 191.460938 52.8125 191.460938 52.8125 194.417969 53.617188 194.417969 53.617188 191.460938 56.539063 191.460938M264.792969 190.257813L271.441406 190.257813 271.441406 189.5 264.792969 189.5zM65.691406 32.941406L63.058594 32.941406 62.890625 33.273438C63.359375 33.273438 63.523438 33.34375 63.597656 33.554688 63.667969 33.742188 63.558594 34.046875 63.21875 34.714844L61.386719 38.328125 61.332031 38.328125 59.9375 32.941406 58.039063 32.941406 57.867188 33.273438C58.371094 33.273438 58.503906 33.386719 58.628906 33.84375L56.214844 38.605469C55.644531 39.734375 55.375 39.9375 54.492188 39.9375L54.324219 40.269531 56.933594 40.269531 57.105469 39.9375C56.265625 39.9375 56.195313 39.722656 56.761719 38.605469L58.898438 34.390625 58.953125 34.390625 60.546875 40.359375 60.914063 40.359375 63.75 34.769531C64.15625 33.96875 64.425781 33.652344 64.683594 33.496094 64.929688 33.34375 65.121094 33.273438 65.523438 33.273438L65.691406 32.941406M262.667969 35.160156L261.460938 32.929688 261.167969 32.929688C261.230469 33.164063 261.164063 33.253906 260.988281 33.253906 260.71875 33.253906 260.296875 32.90625 259.28125 32.90625 258.128906 32.917969 257.484375 33.542969 258.078125 34.714844 258.671875 35.886719 259.847656 36.421875 261 36.933594 262.179688 37.457031 263.316406 37.847656 263.816406 38.832031 264.246094 39.679688 263.890625 40.015625 263.054688 40.015625 261.921875 40.023438 261.171875 39.667969 260 38.128906L259.65625 38.128906 260.976563 40.535156 261.320313 40.535156C261.21875 40.3125 261.28125 40.167969 261.4375 40.167969 261.695313 40.167969 262.296875 40.503906 263.457031 40.503906 264.753906 40.503906 265.367188 39.800781 264.710938 38.507813 264.039063 37.179688 262.679688 36.679688 261.402344 36.121094 260.324219 35.640625 259.316406 35.238281 258.890625 34.402344 258.542969 33.710938 258.796875 33.351563 259.554688 33.351563 260.675781 33.34375 261.398438 33.933594 262.332031 35.160156L262.667969 35.160156"/>
  <path d="M 264.101563 1231.832812 L 431.953125 1231.832812 L 431.953125 1399.684375 L 264.101563 1399.684375 Z M 264.101563 1231.832812" transform="matrix(.1 0 0 -.1 0 354.57)" fill="#55a4e0" stroke-width="7.97" stroke="#000" stroke-miterlimit="10"/>
  <path d="M 264.101563 963.239062 L 431.953125 963.239062 L 431.953125 1131.090625 L 264.101563 1131.090625 Z M 264.101563 963.239062" transform="matrix(.1 0 0 -.1 0 354.57)" fill="#f3a203" stroke-width="7.97" stroke="#000" stroke-miterlimit="10"/>
  <path d="M 264.101563 694.684375 L 431.953125 694.684375 L 431.953125 862.535937 L 264.101563 862.535937 Z M 264.101563 694.684375" transform="matrix(.1 0 0 -.1 0 354.57)" fill="#e132a2" stroke-width="7.97" stroke="#000" stroke-miterlimit="10"/>
  <path d="M 264.101563 426.090625 L 431.953125 426.090625 L 431.953125 593.942187 L 264.101563 593.942187 Z M 264.101563 426.090625" transform="matrix(.1 0 0 -.1 0 354.57)" fill="#a5a5a6" stroke-width="7.97" stroke="#000" stroke-miterlimit="10"/>
  <path d="M 348.046875 291.79375 L 348.046875 123.942187" transform="matrix(.1 0 0 -.1 0 354.57)" fill="none" stroke-width="7.97" stroke="#4c4c4e" stroke-dasharray="29.8883,29.8883" stroke-miterlimit="10"/>
  <text style="white-space: pre; fill: rgb(51, 51, 51); font-family: Arial, sans-serif; font-size: 11.5px;" x="56.589" y="226.852">Terminals</text>
  <text style="white-space: pre; fill: rgb(51, 51, 51); font-family: Arial, sans-serif; font-size: 11.5px;" x="56.589" y="280.449">Coil (rotor)</text>
  <text style="white-space: pre; fill: rgb(51, 51, 51); font-family: Arial, sans-serif; font-size: 11.5px;" x="56.588" y="307.248">Permanent magnet (stator)</text>
  <text style="white-space: pre; fill: rgb(51, 51, 51); font-family: Arial, sans-serif; font-size: 11.5px;" x="55.755" y="336.109">Axis of rotation (out of the screen)</text>
  <text style="white-space: pre; fill: rgb(51, 51, 51); font-family: Arial, sans-serif; font-size: 11.5px;" x="56.589" y="253.146">Commutator</text>
</svg>