<?xml version="1.0" encoding="UTF-8" standalone="no"?>
<!DOCTYPE svg PUBLIC "-//W3C//DTD SVG 20010904//EN"
"http://www.w3.org/TR/2001/REC-SVG-20010904/DTD/svg10.dtd">
<!-- Created with Sodipodi ("http://www.sodipodi.com/") -->
<svg
   xmlns="http://www.w3.org/2000/svg"
   xmlns:sodipodi="http://sodipodi.sourceforge.net/DTD/sodipodi-0.dtd"
   xmlns:xlink="http://www.w3.org/1999/xlink"
   xml:space="preserve"
   id="svg602"
   sodipodi:version="0.34"
   width="336pt"
   height="176pt"
   sodipodi:docname="C:\Eigene Dateien\INTERNET\Wikipedia\Pronyscher_Zaum.svg"><defs
   id="defs604"><linearGradient
   id="linearGradient614"><stop
   style="stop-color:#000;stop-opacity:1;"
   offset="0"
   id="stop615" /><stop
   style="stop-color:#fff;stop-opacity:1;"
   offset="1"
   id="stop616" /></linearGradient><radialGradient
   xlink:href="#linearGradient614"
   id="radialGradient617" /><linearGradient
   xlink:href="#linearGradient614"
   id="linearGradient618"
   x1="0.46511978"
   y1="0.57812512"
   x2="0.52713275"
   y2="0.64062512"
   spreadMethod="reflect" /><linearGradient
   xlink:href="#linearGradient614"
   id="linearGradient631"
   x1="-0.14285979"
   y1="0.5078125"
   x2="0.28571159"
   y2="0.5078125"
   spreadMethod="reflect" /><linearGradient
   xlink:href="#linearGradient614"
   id="linearGradient632"
   x1="0.82370824"
   y1="0.58992022"
   x2="0.21884505"
   y2="0.5897432"
   gradientTransform="translate(7.333995e-9,1.771004e-6)"
   spreadMethod="reflect" /><linearGradient
   xlink:href="#linearGradient614"
   id="linearGradient633"
   x1="0.8905775"
   y1="0.60541111"
   x2="0.28875381"
   y2="0.60526824"
   gradientTransform="translate(-1.405567e-8,1.029617e-6)"
   spreadMethod="reflect" /><linearGradient
   xlink:href="#linearGradient614"
   id="linearGradient634"
   x1="0.78221351"
   y1="0.52343738"
   x2="0.23762435"
   y2="0.52343738" /><linearGradient
   xlink:href="#linearGradient614"
   id="linearGradient648"
   x1="0.86418843"
   y1="0.51562411"
   x2="0.16049188"
   y2="0.51562482"
   spreadMethod="reflect" /><linearGradient
   xlink:href="#linearGradient614"
   id="linearGradient657"
   x1="0.47470769"
   y1="0.39062741"
   x2="0.61089563"
   y2="0.46093762"
   spreadMethod="reflect" /></defs><sodipodi:namedview
   id="base"
   showgrid="true"
   snaptogrid="true"
   gridspacingy="8pt"
   gridspacingx="8pt" /><path
   style="font-size:12;fill:#808080;fill-rule:evenodd;stroke:#000000;stroke-width:0.8875;"
   d="M 40 90 L 40 110 L 47.06262 115.8609 C 53.17634 107.1793 64.81062 98.97897 80.13349 99.06538 C 94.69009 99.27431 105.8546 106.2105 113.2044 116.128 L 120 110 L 120 90 L 40 90 L 40 90 L 40 90 L 40 90 L 40 90 L 40 90 L 40 90 z "
   id="brake1
"
   sodipodi:nodetypes="cccsccccccccc" /><path
   style="font-size:12;fill:#808080;fill-rule:evenodd;stroke:#000000;stroke-width:0.885827;"
   d="M 120 190 L 120 169.9999 L 112.9373 164.139 C 106.8236 172.8206 95.1893 181.021 79.86651 180.9346 C 65.30988 180.7257 54.14539 173.7894 46.79559 163.8719 L 39.99999 169.9999 L 39.99999 190 L 120 190 L 120 190 L 120 190 L 120 190 L 120 190 L 120 190 z "
   id="brake2"
   sodipodi:nodetypes="cccscccccccc" /><g
   id="screw_bolt_left"
   transform="translate(-20,5.722046e-6)"><rect
   style="font-size:12;fill:url(#linearGradient631);fill-rule:evenodd;stroke:#000000;stroke-width:0.625;stroke-dasharray:none;"
   id="rect622"
   width="6.79557807"
   height="139.999946"
   x="48.9318399"
   y="59.7329114" /><rect
   style="font-size:12;fill:url(#linearGradient632);fill-rule:evenodd;stroke:#000000;stroke-width:0.625;stroke-dasharray:none;"
   id="rect623"
   width="15.3130961"
   height="3.59116432"
   x="44.6868679"
   y="199.999884"
   transform="translate(-1.378059e-2,-6.67572e-6)" /><path
   style="font-size:12;fill:#7f7f7f;fill-rule:evenodd;stroke:#000000;stroke-width:0.625;stroke-opacity:1;fill-opacity:1;stroke-dasharray:none;"
   d="M 57.83636 67.749 L 57.9626 63.95067 C 57.93874 62.89415 63.83713 58.67521 65.92045 56.31922 C 67.98917 53.84623 66.94674 48.32958 63.00114 48.04945 C 59.95013 47.96635 58.30568 50.11923 56.96745 53.51007 C 56.96745 53.51007 56.96745 53.51007 47.59993 53.37658 C 46.2617 49.98573 44.61725 47.83285 41.56624 47.91595 C 37.62064 48.19609 36.57821 53.71273 38.64693 56.18572 C 40.73025 58.54172 46.62864 62.76066 46.60478 63.81718 L 46.73102 67.61551 "
   id="path630"
   sodipodi:nodetypes="cccccccccc" /><rect
   style="font-size:12;fill:url(#linearGradient634);fill-rule:evenodd;stroke:none;stroke-width:0.885827;stroke-opacity:1;"
   id="rect635"
   width="10.5793956"
   height="14.0481528"
   x="46.9639483"
   y="53.7784953" /><rect
   style="font-size:12;fill:url(#linearGradient633);fill-rule:evenodd;stroke:#000000;stroke-width:0.625;stroke-dasharray:none;"
   id="rect624"
   width="15.3130942"
   height="1.72191994"
   x="44.6730816"
   y="67.8178073" /></g><g
   id="screw_bolt_right"
   transform="translate(75.92638,5.722046e-6)"><rect
   style="font-size:12;fill:url(#linearGradient631);fill-rule:evenodd;stroke:#000000;stroke-width:0.625;stroke-dasharray:none;"
   id="rect643"
   width="6.79557807"
   height="139.999946"
   x="48.9318399"
   y="59.7329114" /><rect
   style="font-size:12;fill:url(#linearGradient632);fill-rule:evenodd;stroke:#000000;stroke-width:0.625;stroke-dasharray:none;"
   id="rect644"
   width="15.3130961"
   height="3.59116432"
   x="44.6868679"
   y="199.999884"
   transform="translate(-1.378059e-2,-6.67572e-6)" /><path
   style="font-size:12;fill:#7f7f7f;fill-rule:evenodd;stroke:#000000;stroke-width:0.625;stroke-opacity:1;fill-opacity:1;stroke-dasharray:none;"
   d="M 57.83636 67.749 L 57.9626 63.95067 C 57.93874 62.89415 63.83713 58.67521 65.92045 56.31922 C 67.98917 53.84623 66.94674 48.32958 63.00114 48.04945 C 59.95013 47.96635 58.30568 50.11923 56.96745 53.51007 C 56.96745 53.51007 56.96745 53.51007 47.59993 53.37658 C 46.2617 49.98573 44.61725 47.83285 41.56624 47.91595 C 37.62064 48.19609 36.57821 53.71273 38.64693 56.18572 C 40.73025 58.54172 46.62864 62.76066 46.60478 63.81718 L 46.73102 67.61551 "
   id="path645"
   sodipodi:nodetypes="cccccccccc" /><rect
   style="font-size:12;fill:url(#linearGradient634);fill-rule:evenodd;stroke:none;stroke-width:0.885827;stroke-opacity:1;"
   id="rect646"
   width="10.5793956"
   height="14.0481528"
   x="46.9639483"
   y="53.7784953" /><rect
   style="font-size:12;fill:url(#linearGradient633);fill-rule:evenodd;stroke:#000000;stroke-width:0.625;stroke-dasharray:none;"
   id="rect647"
   width="15.3130942"
   height="1.72191994"
   x="44.6730816"
   y="67.8178073" /></g><rect
   style="font-size:12;fill:#40467f;fill-rule:evenodd;stroke:#000000;stroke-width:0.8875;stroke-dasharray:none;"
   id="rect620"
   width="339.999965"
   height="19.9999912"
   x="19.9999965"
   y="70.0000015" /><rect
   style="font-size:12;fill:#40467f;fill-rule:evenodd;stroke:#000000;stroke-width:0.8875;stroke-dasharray:none;"
   id="rect621"
   width="119.999978"
   height="9.9999975"
   x="19.9999961"
   y="189.999994" /><path
   style="font-size:12;fill:#ff7f7f;fill-rule:evenodd;stroke:#7f3f3f;stroke-width:1.25;"
   d="M 120 140 C 120 162.0914 102.0914 180 79.99999 180 C 57.90861 180 40 162.0914 40 140 C 40 117.9086 57.90861 100 79.99999 100 C 102.0914 100 120 117.9086 120 140 z M 66.49036 136.2797 L 53.07821 136.2287 C 42.53443 136.2062 48.84351 123.1256 55.99923 115.935 C 63.52669 108.2629 77.15008 102.8712 77.06207 112.4875 L 77.01726 126.4204 C 74.84322 126.9342 71.60654 128.7855 70.18869 130.2776 C 68.77969 131.8192 67.18254 133.9595 66.49036 136.2797 L 66.49036 136.2797 z M 93.35889 136.2797 L 106.771 136.2287 C 117.3148 136.2062 111.0057 123.1256 103.85 115.935 C 96.3225 108.2629 82.69908 102.8712 82.78708 112.4875 L 82.83198 126.4204 C 85.00598 126.9342 88.24268 128.7855 89.66048 130.2776 C 91.06949 131.8192 92.66669 133.9595 93.35889 136.2797 L 93.35889 136.2797 z M 83.43468 153.3907 L 83.48568 166.8028 C 83.50818 177.3466 96.5888 171.0375 103.7794 163.8818 C 111.4515 156.3543 116.8433 142.7309 107.2269 142.8189 L 93.29399 142.8638 C 92.78019 145.0378 90.92889 148.2745 89.43678 149.6923 C 87.89518 151.1013 85.75488 152.6985 83.43468 153.3907 L 83.43468 153.3907 z M 66.49 143.4666 L 53.0779 143.5176 C 42.5342 143.5401 48.8432 156.6207 55.9989 163.8112 C 63.5264 171.4833 77.14979 176.8752 77.06179 167.2587 L 77.01689 153.3259 C 74.8429 152.8121 71.6062 150.9608 70.1884 149.4687 C 68.7794 147.9271 67.1822 145.7868 66.49 143.4666 L 66.49 143.4666 z M 89.99998 140 C 89.99998 145.5228 85.52278 150 79.99999 150 C 74.47715 150 70 145.5228 70 140 C 70 134.4772 74.47715 130 79.99999 130 C 85.52278 130 89.99998 134.4772 89.99998 140 z "
   id="wheel
" /><path
   sodipodi:type="arc"
   style="stroke:#000000;stroke-opacity:1;stroke-width:1.25;stroke-dasharray:none;fill-rule:evenodd;fill:url(#linearGradient618);fill-opacity:1;stroke-linejoin:miter;stroke-linecap:butt;"
   id="shaft"
   d="M 110 140 A 10 10 0 1 0 90 140 A 10 10 0 1 0  110 140 z"
   sodipodi:cx="100"
   sodipodi:cy="140"
   sodipodi:rx="10"
   sodipodi:ry="10"
   transform="translate(-20,5.722046e-6)" /><rect
   style="font-size:12;fill:url(#linearGradient633);fill-rule:evenodd;stroke:#000000;stroke-width:0.625;"
   id="rect671"
   width="15.3130866"
   height="1.72191896"
   x="342.688274"
   y="90.2688678" /><rect
   style="font-size:12;fill:url(#linearGradient633);fill-rule:evenodd;stroke:#000000;stroke-width:0.625;"
   id="rect672"
   width="15.3130875"
   height="1.72191908"
   x="342.688305"
   y="67.9449861" /><rect
   style="font-size:12;fill:#808080;fill-rule:evenodd;stroke:#000000;stroke-width:0.625;"
   id="rect673"
   width="10.6584648"
   height="4.82963199"
   x="345.053661"
   y="62.9764462" /><path
   style="font-size:12;fill:none;fill-rule:evenodd;stroke:#000000;stroke-width:0.625;"
   d="M 348.2181 62.90157 L 348.2611 67.81725 "
   id="path674"
   sodipodi:nodetypes="cc" /><path
   style="font-size:12;fill:none;fill-rule:evenodd;stroke:#000000;stroke-width:0.625;"
   d="M 353.0478 62.98206 L 353.0478 67.76867 "
   id="path675"
   sodipodi:nodetypes="cc" /><path
   style="font-size:12;fill:#7f7f7f;fill-rule:evenodd;stroke:#000000;stroke-width:0.625;"
   d="M 352.6902 92.24457 C 352.7591 95.53203 354.3845 95.54213 355.8188 97.43065 C 357.0387 98.76789 358.433 100.445 358.3508 103.105 C 358.1848 106.2501 355.8362 109.0247 352.8579 109.7825 C 350.3453 110.2439 346.7323 110.2034 344.6065 107.2886 C 342.9264 105.2008 342.3433 104.0508 342.323 102.3229 C 342.3165 101.7792 343.1987 100.623 344.7511 101.4091 C 346.7405 103.2281 346.7536 105.3044 349.9068 105.5732 C 353.313 105.0535 353.4611 101.023 349.483 98.33189 C 346.6721 96.00403 347.4723 94.24547 347.1827 92.18436 "
   id="peg"
   sodipodi:nodetypes="ccsccccccc" /><path
   style="font-size:12;fill:none;fill-rule:evenodd;stroke:#000000;stroke-width:1.5;stroke-linejoin:round;"
   d="M 300 190 L 350.1665 103.9635 L 400 190 "
   id="path683"
   sodipodi:nodetypes="ccc" /><path
   style="font-size:12;fill:url(#linearGradient657);fill-rule:evenodd;stroke:#000000;stroke-width:1;"
   d="M 310 50 L 310 60 L 290 60 L 290 50 M 290 60 L 290 50 "
   id="bound_up"
   sodipodi:nodetypes="cccccc" /><path
   style="font-size:12;fill:url(#linearGradient657);fill-rule:evenodd;stroke:#000000;stroke-width:1;"
   d="M 310 110 L 310 99.99995 L 290 99.99995 L 290 110 M 290 99.99995 L 290 110 "
   id="bound_down
"
   sodipodi:nodetypes="cccccc" /><path
   style="font-size:12;fill:url(#linearGradient648);fill-rule:evenodd;stroke:#000000;stroke-width:0.625;"
   d="M 329.9994 190 L 330.0775 170 C 329.8947 165.5384 337.746 168.5841 337.6777 165.0083 C 337.6788 161.4438 333.7613 163.257 333.634 160.5251 C 333.6441 157.8383 335.9178 157.9017 340.1174 157.9008 C 344.3169 157.9017 346.4801 157.9488 346.4902 160.6356 C 346.3629 163.3675 342.4454 161.5543 342.4465 165.1188 C 342.3782 168.6946 350.0754 165.5979 349.9994 170 L 349.9994 190 "
   id="weight_big"
   sodipodi:nodetypes="ccccccccc" /><path
   style="font-size:12;fill:url(#linearGradient648);fill-rule:evenodd;stroke:#000000;stroke-width:0.348851;"
   d="M 359.9994 190 L 360.0384 177.5386 C 359.947 174.7587 363.8728 176.6564 363.8386 174.4285 C 363.8392 172.2075 361.8804 173.3373 361.8167 171.6351 C 361.8218 169.9611 362.9586 170.0006 365.0585 170 C 367.1583 170.0006 368.24 170.0299 368.245 171.704 C 368.1814 173.4061 366.2226 172.2764 366.2231 174.4973 C 366.189 176.7253 370.0377 174.7958 369.9997 177.5386 L 369.9997 190 "
   id="weight_small"
   sodipodi:nodetypes="ccccccccc" /><rect
   style="font-size:12;fill:#808080;fill-rule:evenodd;stroke:#000000;stroke-width:0.717911;"
   id="plate"
   width="105.995401"
   height="4.33765147"
   x="297.00212"
   y="189.999918" /><path
   style="font-size:12;fill:none;fill-rule:evenodd;stroke:#000000;stroke-width:0.625;"
   d="M 79.99999 30 L 350 30 "
   id="path659" /><path
   style="font-size:12;fill:none;fill-rule:evenodd;stroke:#000000;stroke-width:0.625;"
   d="M 79.99999 27.1277 L 79.99999 70 "
   id="path661"
   sodipodi:nodetypes="cc" /><path
   style="font-size:12;fill:none;fill-rule:evenodd;stroke:#000000;stroke-width:0.625;"
   d="M 350 26.62571 L 350.043 62.79657 "
   id="path662"
   sodipodi:nodetypes="cc" /><path
   style="font-size:12;fill:none;fill-rule:evenodd;stroke:#000000;stroke-width:0.625;stroke-linecap:round;stroke-linejoin:bevel;"
   d="M 87.47368 32.78206 L 79.99999 30 L 79.99999 30 L 87.47368 27.17281 "
   id="path668"
   sodipodi:nodetypes="cccc" /><path
   style="font-size:12;fill:none;fill-rule:evenodd;stroke:#000000;stroke-width:0.625;stroke-linecap:round;stroke-linejoin:bevel;"
   d="M 342.4847 32.78204 L 349.9584 29.99998 L 349.9584 29.99998 L 342.4847 27.17279 "
   id="path670"
   sodipodi:nodetypes="cccc" /><text
   style="fill:black;stroke:none;font-family:Times New Roman;font-style:italic;font-weight:normal;font-size:16;text-anchor:start;writing-mode:lr;fill-opacity:1;stroke-opacity:1;stroke-width:1pt;stroke-linejoin:miter;stroke-linecap:butt;"
   x="215.079136"
   y="25.2740597"
   id="text671"
   sodipodi:linespacing="100%"
   xml:space="preserve"><tspan
   x="215.079132"
   y="25.2740593"
   sodipodi:role="line"
   id="tspan676">l</tspan></text><g
   id="g697"
   transform="translate(-20,5.722046e-6)"><path
   sodipodi:type="arc"
   style="font-size:12;fill:none;fill-rule:evenodd;stroke:#ff0000;stroke-width:3.7498;stroke-opacity:1;stroke-dasharray:none;"
   id="path678"
   d="M 125.7124 139.8835 A 25.75686 25.75687 0 0 1 97.10322 165.4819"
   sodipodi:cx="99.9555359"
   sodipodi:cy="139.883499"
   sodipodi:rx="25.7568626"
   sodipodi:ry="25.7568665"
   sodipodi:start="0"
   sodipodi:end="1.68176415"
   transform="matrix(-0.508863,-0.675744,0.639173,-0.537979,61.72687,283.8486)"
   sodipodi:open="true" /><path
   style="fill:#ff0000;fill-rule:evenodd;stroke:none;stroke-opacity:1;stroke-width:1.25;stroke-linejoin:round;stroke-linecap:butt;fill-opacity:1;stroke-dasharray:none;"
   d="M 87.27371 117.4348 L 83.23682 127.2086 L 93.06176 125.3695 L 87.27371 117.4348 L 87.27371 117.4348 z "
   id="path679"
   sodipodi:nodetypes="cccc" /></g><text
   style="fill:#ff0000;stroke:none;font-family:Arial;font-style:normal;font-weight:normal;font-size:24;text-anchor:start;writing-mode:lr;fill-opacity:1;stroke-opacity:1;stroke-width:1pt;stroke-linejoin:miter;stroke-linecap:butt;"
   x="138.98359"
   y="132.66992"
   id="text700"
   sodipodi:linespacing="100%"
   xml:space="preserve"><tspan
   x="138.983597"
   y="132.669922"
   sodipodi:role="line"
   id="tspan703"
   style="fill:#ff0000;fill-opacity:1;">M</tspan></text><g
   id="g707"><path
   style="font-size:12;fill:#0000ff;fill-rule:evenodd;stroke-width:1.25;stroke-linejoin:round;"
   d="M 345.0853 129.3299 L 350.1025 136.0691 L 354.9067 129.2752 L 345.0853 129.3299 L 345.0853 129.3299 L 345.0853 129.3299 L 345.0853 129.3299 z "
   id="path680"
   sodipodi:nodetypes="cccccc" /><path
   style="font-size:12;fill:none;fill-rule:evenodd;stroke:#0000fb;stroke-width:3.149999;"
   d="M 350.04 110.2466 L 350.1025 130.6179 "
   id="path681"
   sodipodi:nodetypes="cc" /></g><text
   style="fill:#0000ff;stroke:none;font-family:Arial;font-style:normal;font-weight:normal;font-size:24;text-anchor:start;writing-mode:lr;fill-opacity:1;stroke-opacity:1;stroke-width:1pt;stroke-linejoin:miter;stroke-linecap:butt;"
   x="367.251047"
   y="132.669996"
   id="text682"
   sodipodi:linespacing="100%"
   xml:space="preserve"><tspan
   x="367.251038"
   y="132.669998"
   sodipodi:role="line"
   id="tspan687">F</tspan></text></svg>
